<svg id="svg" version="1.1" width="400" height="400" viewBox="0 0 400 400" xmlns="http://www.w3.org/2000/svg" xmlns:xlink="http://www.w3.org/1999/xlink" ><g id="svgg"><path id="path0" d="M0.000 200.000 L 0.000 400.000 200.000 400.000 L 400.000 400.000 400.000 200.000 L 400.000 0.000 200.000 0.000 L 0.000 0.000 0.000 200.000 M391.100 200.500 L 391.201 391.200 378.000 391.200 L 364.800 391.200 364.800 282.800 L 364.800 174.400 253.000 174.400 L 141.200 174.400 141.200 282.800 L 141.200 391.200 75.000 391.200 L 8.800 391.200 8.800 200.667 C 8.800 95.873,8.920 10.013,9.067 9.866 C 9.214 9.719,95.209 9.644,200.167 9.700 L 391.000 9.800 391.100 200.500 " stroke="none" fill="#ffffff" fill-rule="evenodd"></path><path id="path1" d="M9.200 200.600 L 9.200 390.800 75.000 390.800 L 140.800 390.800 140.800 282.408 L 140.800 174.015 141.700 173.798 C 142.195 173.679,192.640 173.631,253.800 173.691 L 365.000 173.800 365.101 282.300 L 365.201 390.800 378.001 390.800 L 390.800 390.800 390.800 200.600 L 390.800 10.400 200.000 10.400 L 9.200 10.400 9.200 200.600 " stroke="none" fill="#040404" fill-rule="evenodd"></path><path id="path2" d="" stroke="none" fill="#c010080" fill-rule="evenodd"></path><path id="path3" d="M8.985 10.500 C 8.881 10.775,8.841 96.500,8.898 201.000 L 9.000 391.000 75.000 391.000 L 141.000 391.000 141.200 282.500 C 141.310 222.825,141.265 174.000,141.100 174.000 C 140.935 174.000,140.800 222.780,140.800 282.400 L 140.800 390.800 75.000 390.800 L 9.200 390.800 9.200 200.600 L 9.200 10.400 200.000 10.400 L 390.800 10.400 390.800 200.600 L 390.800 390.800 378.001 390.800 L 365.201 390.800 365.100 282.300 L 364.998 173.800 364.999 282.400 L 365.000 391.000 378.000 391.000 L 391.000 391.000 391.100 200.500 L 391.201 10.000 200.188 10.000 C 47.745 10.000,9.137 10.101,8.985 10.500 " stroke="none" fill="#408480" fill-rule="evenodd"></path><path id="path4" d="M197.300 173.900 C 228.045 173.957,278.355 173.957,309.100 173.900 C 339.845 173.843,314.690 173.797,253.200 173.797 C 191.710 173.797,166.555 173.843,197.300 173.900 " stroke="none" fill="#400484" fill-rule="evenodd"></path></g></svg>
