<?xml version="1.0" standalone="no"?>
<!DOCTYPE svg PUBLIC "-//W3C//DTD SVG 20010904//EN"
 "http://www.w3.org/TR/2001/REC-SVG-20010904/DTD/svg10.dtd">
<svg version="1.0" xmlns="http://www.w3.org/2000/svg"
 width="434.000000pt" height="376.000000pt" viewBox="0 0 534.000000 476.000000"
 preserveAspectRatio="xMidYMid meet">

<g transform="translate(0.000000,476.000000) scale(0.100000,-0.100000)"
fill="#000000" stroke="none">
<path d="M7 4753 c-4 -3 -7 -1074 -7 -2380 l0 -2373 2670 0 2670 0 0 2380 0
2380 -2663 0 c-1465 0 -2667 -3 -2670 -7z m5323 -2378 l0 -2365 -2655 0 -2655
0 0 2365 0 2365 2655 0 2655 0 0 -2365z"/>
<path d="M1560 3340 c-572 -101 -1022 -530 -1158 -1104 -24 -101 -26 -130 -26
-311 0 -181 2 -210 26 -311 66 -280 198 -515 400 -713 561 -550 1456 -549
2019 3 199 194 331 431 397 710 24 101 26 130 26 311 0 181 -2 210 -26 311
-84 353 -283 652 -573 859 -307 220 -712 311 -1085 245z m519 -29 c299 -58
560 -203 769 -426 183 -195 310 -450 358 -715 24 -128 24 -362 0 -490 -81
-448 -372 -830 -786 -1030 -188 -91 -384 -134 -610 -134 -171 0 -272 15 -430
64 -492 151 -873 585 -966 1100 -24 128 -24 362 0 490 92 510 462 936 950
1095 93 30 232 59 331 69 79 8 288 -5 384 -23z"/>
</g>
</svg>
